<?xml version="1.0" encoding="UTF-8" standalone="no"?>
<!-- Created with Inkscape (http://www.inkscape.org/) -->

<svg
   xmlns:dc="http://purl.org/dc/elements/1.1/"
   xmlns:cc="http://creativecommons.org/ns#"
   xmlns:rdf="http://www.w3.org/1999/02/22-rdf-syntax-ns#"
   xmlns:svg="http://www.w3.org/2000/svg"
   xmlns="http://www.w3.org/2000/svg"
   xmlns:sodipodi="http://sodipodi.sourceforge.net/DTD/sodipodi-0.dtd"
   xmlns:inkscape="http://www.inkscape.org/namespaces/inkscape"
   width="71.17292mm"
   height="47.625mm"
   viewBox="0 0 71.17292 47.625"
   version="1.1"
   id="svg470"
   inkscape:version="0.92.4 (5da689c313, 2019-01-14)"
   sodipodi:docname="soniir.svg">
  <defs
     id="defs464" />
  <sodipodi:namedview
     id="base"
     pagecolor="#ffffff"
     bordercolor="#666666"
     borderopacity="1.0"
     inkscape:pageopacity="0.0"
     inkscape:pageshadow="2"
     inkscape:zoom="0.35"
     inkscape:cx="-59.785708"
     inkscape:cy="330.00001"
     inkscape:document-units="mm"
     inkscape:current-layer="layer1"
     showgrid="false"
     fit-margin-top="0"
     fit-margin-left="0"
     fit-margin-right="0"
     fit-margin-bottom="0"
     inkscape:window-width="1920"
     inkscape:window-height="1015"
     inkscape:window-x="0"
     inkscape:window-y="0"
     inkscape:window-maximized="1" />
  <metadata
     id="metadata467">
    <rdf:RDF>
      <cc:Work
         rdf:about="">
        <dc:format>image/svg+xml</dc:format>
        <dc:type
           rdf:resource="http://purl.org/dc/dcmitype/StillImage" />
        <dc:title></dc:title>
      </cc:Work>
    </rdf:RDF>
  </metadata>
  <g
     inkscape:label="Layer 1"
     inkscape:groupmode="layer"
     id="layer1"
     transform="translate(-121.65164,-188.52083)">
    <g
       id="soniir"
       transform="translate(60.734006,256.64585)"
       inkscape:label="#g6063">
      <ellipse
         ry="23.8125"
         rx="35.58646"
         cy="-44.312515"
         cx="96.504089"
         id="path4496"
         style="opacity:1;fill:#00478f;fill-opacity:1;fill-rule:nonzero;stroke:none;stroke-width:0.26499999;stroke-linecap:round;stroke-miterlimit:4;stroke-dasharray:none;stroke-dashoffset:0;stroke-opacity:1" />
      <ellipse
         ry="14.833461"
         rx="25.123335"
         cy="-47.792435"
         cx="92.20697"
         id="path4498"
         style="opacity:1;fill:none;fill-opacity:1;fill-rule:nonzero;stroke:#ffffff;stroke-width:1;stroke-linecap:round;stroke-miterlimit:4;stroke-dasharray:none;stroke-dashoffset:0;stroke-opacity:1" />
      <text
         transform="matrix(0.86762038,0,-0.0828181,1.1525778,0,0)"
         id="text4502"
         y="-41.327248"
         x="96.357735"
         style="font-style:normal;font-weight:normal;font-size:6.23620605px;line-height:125%;font-family:Sans;letter-spacing:0px;word-spacing:0px;fill:#ffffff;fill-opacity:1;stroke:none;stroke-width:0.26458332px;stroke-linecap:butt;stroke-linejoin:miter;stroke-opacity:1"
         xml:space="preserve"><tspan
           style="font-style:italic;font-variant:normal;font-weight:bold;font-stretch:normal;font-family:Sans;-inkscape-font-specification:'Sans Bold Italic';fill:#ffffff;stroke-width:0.26458332px"
           y="-41.327248"
           x="96.357735"
           id="tspan4500"
           sodipodi:role="line">СОНИИР</tspan></text>
      <path
         inkscape:connector-curvature="0"
         id="path4504"
         d="m 103.59934,-45.320197 3.04019,1.16931 2.03793,4.74403 h -2.73951 z"
         style="fill:#ffffff;fill-opacity:1;fill-rule:evenodd;stroke:none;stroke-width:0.26458332px;stroke-linecap:butt;stroke-linejoin:miter;stroke-opacity:1" />
      <path
         sodipodi:nodetypes="ccccccsccccccccc"
         inkscape:connector-curvature="0"
         id="path4623"
         d="m 106.01538,-34.061407 1.04002,0.15167 2.15485,-0.98557 0.735,-0.23385 1.70384,-0.63477 1.40316,-0.56794 c 0.58775,-0.31944 0.72097,-1.50639 0.29756,-2.65113 -0.42341,-1.14473 -1.24312,-1.81376 -1.83087,-1.49431 l -1.40316,0.56793 -1.70385,0.63477 -0.73499,0.23385 -2.15485,0.98557 -0.8626,0.65198 -0.93712,0.41842 1.35756,3.34097 z"
         style="fill:#00478f;fill-opacity:1;fill-rule:evenodd;stroke:#ffffff;stroke-width:0.1;stroke-linecap:butt;stroke-linejoin:miter;stroke-miterlimit:4;stroke-dasharray:none;stroke-opacity:1" />
      <path
         inkscape:connector-curvature="0"
         id="path4506"
         d="m 107.70861,-35.364407 3.842,0.26727 3.77518,7.684 -3.80859,1.33635 z"
         style="fill:#ffffff;fill-opacity:1;fill-rule:evenodd;stroke:none;stroke-width:0.26458332px;stroke-linecap:butt;stroke-linejoin:miter;stroke-opacity:1" />
      <ellipse
         transform="matrix(0.68293338,-0.73048067,0.77590668,0.6308477,0,0)"
         ry="1.4995528"
         rx="2.5178866"
         cy="49.010113"
         cx="93.985153"
         id="path4508"
         style="opacity:1;fill:#ffffff;fill-opacity:1;fill-rule:nonzero;stroke:none;stroke-width:1.00119627;stroke-linecap:round;stroke-miterlimit:4;stroke-dasharray:none;stroke-dashoffset:0;stroke-opacity:1" />
      <ellipse
         transform="matrix(0.67664404,-0.73631029,0.77055869,0.63736905,0,0)"
         ry="1.376326"
         rx="2.316381"
         cy="53.473953"
         cx="103.64182"
         id="path4508-5"
         style="opacity:1;fill:#ffffff;fill-opacity:1;fill-rule:nonzero;stroke:none;stroke-width:1.00067949;stroke-linecap:round;stroke-miterlimit:4;stroke-dasharray:none;stroke-dashoffset:0;stroke-opacity:1" />
      <ellipse
         transform="matrix(0.37644716,0.92643809,-0.89630398,0.44344016,0,0)"
         ry="1.05124"
         rx="1.8031247"
         cy="-110.3128"
         cx="14.682931"
         id="path4508-5-1"
         style="opacity:1;fill:#ffffff;fill-opacity:1;fill-rule:nonzero;stroke:none;stroke-width:1.00135171;stroke-linecap:round;stroke-miterlimit:4;stroke-dasharray:none;stroke-dashoffset:0;stroke-opacity:1" />
      <path
         sodipodi:open="true"
         d="m 17.130977,-113.33685 a 2.2099652,1.2112422 0 0 1 2.209965,-1.21125 2.2099652,1.2112422 0 0 1 2.209966,1.21125"
         sodipodi:end="0"
         sodipodi:start="3.1415927"
         sodipodi:ry="1.2112422"
         sodipodi:rx="2.2099652"
         sodipodi:cy="-113.33685"
         sodipodi:cx="19.340942"
         sodipodi:type="arc"
         transform="matrix(0.34690908,0.93789876,-0.87861277,0.47753492,0,0)"
         id="path4508-5-1-1-0"
         style="opacity:1;fill:none;fill-opacity:1;fill-rule:nonzero;stroke:#ffffff;stroke-width:0.10051845;stroke-linecap:round;stroke-miterlimit:4;stroke-dasharray:none;stroke-dashoffset:0;stroke-opacity:1" />
      <path
         sodipodi:open="true"
         d="m 12.92044,-111.33941 a 1.8031247,1.05124 0 0 1 1.803125,-1.05124 1.8031247,1.05124 0 0 1 1.803125,1.05124"
         sodipodi:end="0"
         sodipodi:start="3.1415927"
         sodipodi:ry="1.05124"
         sodipodi:rx="1.8031247"
         sodipodi:cy="-111.33941"
         sodipodi:cx="14.723565"
         sodipodi:type="arc"
         transform="matrix(0.37644716,0.92643809,-0.89630398,0.44344016,0,0)"
         id="path4508-5-1-1"
         style="opacity:1;fill:none;fill-opacity:1;fill-rule:nonzero;stroke:#ffffff;stroke-width:0.10013518;stroke-linecap:round;stroke-miterlimit:4;stroke-dasharray:none;stroke-dashoffset:0;stroke-opacity:1" />
      <path
         sodipodi:open="true"
         d="m 17.295742,-115.72435 a 2.2099652,1.2112422 0 0 1 2.209965,-1.21124 2.2099652,1.2112422 0 0 1 2.209965,1.21124"
         sodipodi:end="0"
         sodipodi:start="3.1415927"
         sodipodi:ry="1.2112422"
         sodipodi:rx="2.2099652"
         sodipodi:cy="-115.72435"
         sodipodi:cx="19.505707"
         sodipodi:type="arc"
         transform="matrix(0.34690908,0.93789876,-0.87861277,0.47753492,0,0)"
         id="path4508-5-1-1-0-8"
         style="opacity:1;fill:none;fill-opacity:1;fill-rule:nonzero;stroke:#ffffff;stroke-width:0.10051845;stroke-linecap:round;stroke-miterlimit:4;stroke-dasharray:none;stroke-dashoffset:0;stroke-opacity:1" />
      <path
         sodipodi:open="true"
         d="m 17.442775,-116.50284 a 2.2099652,1.2112422 0 0 1 2.209966,-1.21124 2.2099652,1.2112422 0 0 1 2.209965,1.21124"
         sodipodi:end="0"
         sodipodi:start="3.1415927"
         sodipodi:ry="1.2112422"
         sodipodi:rx="2.2099652"
         sodipodi:cy="-116.50284"
         sodipodi:cx="19.65274"
         sodipodi:type="arc"
         transform="matrix(0.34690908,0.93789876,-0.87861277,0.47753492,0,0)"
         id="path4508-5-1-1-0-8-5"
         style="opacity:1;fill:none;fill-opacity:1;fill-rule:nonzero;stroke:#ffffff;stroke-width:0.10051845;stroke-linecap:round;stroke-miterlimit:4;stroke-dasharray:none;stroke-dashoffset:0;stroke-opacity:1" />
      <path
         sodipodi:open="true"
         d="m 17.701366,-118.33998 a 2.2099652,1.2112422 0 0 1 2.209965,-1.21124 2.2099652,1.2112422 0 0 1 2.209965,1.21124"
         sodipodi:end="0"
         sodipodi:start="3.1415927"
         sodipodi:ry="1.2112422"
         sodipodi:rx="2.2099652"
         sodipodi:cy="-118.33998"
         sodipodi:cx="19.911331"
         sodipodi:type="arc"
         transform="matrix(0.34690908,0.93789876,-0.87861277,0.47753492,0,0)"
         id="path4508-5-1-1-0-8-5-0"
         style="opacity:1;fill:none;fill-opacity:1;fill-rule:nonzero;stroke:#ffffff;stroke-width:0.10051845;stroke-linecap:round;stroke-miterlimit:4;stroke-dasharray:none;stroke-dashoffset:0;stroke-opacity:1" />
      <g
         id="g4661"
         transform="translate(-31.672448,-180.15441)">
        <path
           inkscape:connector-curvature="0"
           style="fill:#ffffff;fill-opacity:1;fill-rule:evenodd;stroke:none;stroke-width:0.99999994px;stroke-linecap:butt;stroke-linejoin:miter;stroke-opacity:1"
           d="m 421.92188,469.85352 -0.81446,3.95898 -2.52539,2.71484 -0.82031,-1.89453 -3.53516,0.25196 -2.08398,1.89453 -0.25196,1.83203 2.9043,-0.25391 0.50391,-2.14648 0.56836,0.18945 v 1.13672 l 1.32617,0.12695 -0.12695,0.82032 -1.13672,0.12695 -0.31446,1.07226 -2.84179,-0.69531 -2.27344,2.33789 -1.13477,0.0625 -0.63281,1.89453 -2.58789,0.0625 -0.63086,1.64063 1.07227,1.70508 1.26367,-0.69336 1.32617,-1.07422 0.82031,-1.64063 2.33594,0.125 1.26172,1.51563 v 1.38867 l 0.75781,-1.19922 0.56836,0.0625 -1.32617,-2.14648 2.08398,1.00976 0.69532,1.89453 0.88281,-1.57812 1.45312,-0.0625 0.37891,-0.44336 -0.18945,-1.51367 1.13672,-0.18946 v 0.88282 h 1.13476 l -0.31445,-0.75782 0.69336,-0.5039 0.88476,1.13672 0.56836,1.95703 -3.78906,-0.31641 -0.75781,0.75781 0.44336,1.19922 2.83984,0.0645 v 2.01953 l -2.52539,0.82031 -2.08203,-0.82031 -1.76758,1.00976 -2.7793,-1.57812 -0.82031,-1.19922 -3.53515,0.18945 -2.33594,0.75781 -1.38867,1.13672 -3.47266,3.0293 -0.44141,4.04102 1.38868,2.96679 2.83984,1.89453 2.08398,-0.56836 h 2.9668 l 2.21094,1.38868 -1.01172,2.21093 2.33594,3.28125 -0.69336,3.59961 1.32617,3.85157 1.89258,2.33593 3.09375,0.125 3.2832,-3.4707 1.64258,-2.7793 1.64062,-1.45117 -0.125,-4.98828 3.15625,-3.0293 1.38868,-3.41015 -1.30469,-0.14258 -1.65039,0.13477 -2.14453,-2.23243 -2.27539,-3.48242 -0.66993,-2.27734 2.1875,2.00976 2.67774,3.66016 0.35742,1.02734 3.97266,-3.08007 0.0449,-2.27735 -1.65039,0.0899 -2.14453,-2.1875 6.38476,0.44531 1.77149,1.24023 1.70312,4.29492 0.63281,-1.70507 0.18946,-4.54688 1.50586,0.0469 2.05664,2.80468 c 0,0 -0.6334,-6.6565 -6.32227,-13.27929 -5.68887,-6.62276 -13.41016,-8.61914 -13.41015,-8.61914 z m 2.7207,11.15625 1.51562,0.0625 1.64063,2.46289 0.12695,1.89453 -1.89453,0.25195 -1.32617,-2.33594 -0.94531,-1.13672 z"
           transform="scale(0.26458333)"
           id="path4648" />
        <ellipse
           style="opacity:1;fill:none;fill-opacity:1;fill-rule:nonzero;stroke:#ffffff;stroke-width:0.30000001;stroke-linecap:round;stroke-miterlimit:4;stroke-dasharray:none;stroke-dashoffset:0;stroke-opacity:1"
           id="path4640"
           cx="109.57385"
           cy="131.41997"
           rx="7.3971968"
           ry="7.3969998" />
        <path
           style="fill:#ffffff;fill-opacity:1;fill-rule:evenodd;stroke:none;stroke-width:0.26499999;stroke-linecap:butt;stroke-linejoin:miter;stroke-miterlimit:4;stroke-dasharray:none;stroke-opacity:1"
           d="m 102.36543,129.75937 c 0,0 -0.53498,1.19974 0.0254,3.42777 0.56041,2.22804 1.4697,2.9313 1.4697,2.9313 l -0.0264,-0.96685 0.20046,-0.25056 -0.0167,-0.95215 0.16704,-0.55124 -1.186,-1.08578 -0.63353,-2.55249"
           id="path4642"
           inkscape:connector-curvature="0" />
        <path
           style="fill:#ffffff;fill-opacity:1;fill-rule:evenodd;stroke:none;stroke-width:0.26458332px;stroke-linecap:butt;stroke-linejoin:miter;stroke-opacity:1"
           d="m 103.84999,126.73438 0.82579,0.0464 0.4016,-0.4016 0.47247,-0.0472 0.57878,-0.99219 0.85044,-0.18899 0.6024,-0.57878 0.1761,-0.32257 c 0,0 -0.97043,0.19299 -2.09107,0.88971 -1.12065,0.69672 -1.81651,1.59526 -1.81651,1.59526 z"
           id="path4644"
           inkscape:connector-curvature="0" />
        <path
           style="fill:#ffffff;fill-opacity:1;fill-rule:evenodd;stroke:none;stroke-width:0.26458332px;stroke-linecap:butt;stroke-linejoin:miter;stroke-opacity:1"
           d="m 108.76265,124.71373 -0.76777,0.0236 -1.05124,0.54335 -0.27167,0.46065 1.2048,-0.17717 0.73232,-0.4961 z"
           id="path4646"
           inkscape:connector-curvature="0" />
        <path
           style="fill:#ffffff;fill-opacity:1;fill-rule:evenodd;stroke:none;stroke-width:0.26458332px;stroke-linecap:butt;stroke-linejoin:miter;stroke-opacity:1"
           d="m 112.85456,135.26852 0.18374,-0.56794 0.48443,-0.31739 0.0334,0.50113 -0.31738,0.80181 -0.41761,0.16705 -0.10023,-0.33409 z"
           id="path4653"
           inkscape:connector-curvature="0" />
      </g>
    </g>
  </g>
</svg>
